<?xml version="1.0" encoding="utf-8"?>
<!-- Generator: Adobe Illustrator 18.0.0, SVG Export Plug-In . SVG Version: 6.00 Build 0)  -->
<!DOCTYPE svg PUBLIC "-//W3C//DTD SVG 1.1//EN" "http://www.w3.org/Graphics/SVG/1.1/DTD/svg11.dtd">
<svg version="1.1" xmlns="http://www.w3.org/2000/svg" xmlns:xlink="http://www.w3.org/1999/xlink" x="0px" y="0px"
	 viewBox="0 0 360 640" enable-background="new 0 0 360 640" xml:space="preserve">
<g id="Guides_For_Artboard">
</g>
<g id="Layer_1">
	<g>
		<circle fill="#F16584" cx="285.3" cy="404.7" r="14.6"/>
		<path fill="#403E56" d="M230.4,443.3l-11.5-22.5l11.5,19.7l0.1-8.1l-7.9-16.3l7.9,14.1l0.2-14.5l-8.6-13l8.6,10.8l0.6-26.5l0-0.1
			l0,0.1l-0.1,33.6l9.5-13.6l-9.4,16.4l0.4,16.2l0-0.4l10.9-14.3l-10.9,15.9l0,2l0,0l0,0.2l0.5,21.5c-0.7,0-1.4,0-2.2,0l0-1.7
			l-10-16.4l10,14.8L230.4,443.3z"/>
		<path fill="#CBCBCB" d="M177,456.2l-11.5-22.5l11.5,19.7l0.1-8.1l-7.9-16.3l7.9,14.1l0.2-14.5l-8.6-13l8.6,10.8l0.6-26.5l0-0.1
			l0,0.1l-0.1,33.6l9.5-13.6l-9.4,16.4l0.4,16.2l0-0.4l10.9-14.3l-10.9,15.9l0,2l0,0l0,0.2l0.5,21.5c-0.7,0-1.4,0-2.2,0l0-1.7
			l-10-16.4l10,14.8L177,456.2z"/>
		<path fill="#403E56" d="M276.4,439.8l-11.5-22.5l11.5,19.7l0.1-8.1l-7.9-16.3l7.9,14.1l0.2-14.5l-8.6-13l8.6,10.8l0.6-26.5l0-0.1
			l0,0.1l-0.1,33.6l9.5-13.6l-9.4,16.4l0.4,16.2l0-0.4l10.9-14.3l-10.9,15.9l0,2l0,0l0,0.2l0.5,21.5c-0.7,0-1.4,0-2.2,0l0-1.7
			l-10-16.4l10,14.8L276.4,439.8z"/>
		<path fill="#9B9A9A" d="M78.9,517.2c6.7-4.9,13.7-9.4,21-13.4c20.4-11.2,45.4-20.9,73.9-28.3c2-0.5,3.9-1,5.9-1.5
			c4.2-1,8.5-2,12.9-3c1.1-0.2,2.2-0.5,3.2-0.7c6.1-1.3,12.3-2.5,18.6-3.5c0.1,0,0.3,0,0.4-0.1c1.5-0.3,3-0.5,4.5-0.7
			c29.9-4.9,62.3-7.5,96.2-7.6c0.3,0,0.6,0,0.8,0v117.1H42.7C42.7,554.3,55.9,534.4,78.9,517.2z"/>
		<path fill="#4CBA7E" d="M133.3,530.5c11.7-8.7,26.6-16.4,44.1-23c1.9-0.7,3.9-1.4,5.9-2.1c0.3-0.1,0.6-0.2,0.8-0.3
			c2.6-0.9,5.2-1.7,7.8-2.6c4.5-1.4,9.1-2.7,13.8-4c3.4-0.9,6.8-1.7,10.3-2.6c1.1-0.3,2.3-0.5,3.4-0.8c2.6-0.6,5.2-1.1,7.8-1.6
			c27-5.4,57.2-8.4,89-8.4v90.3h-211C105.3,559.1,115.5,543.8,133.3,530.5z"/>
		<path fill="#FFFFFF" d="M127.8,570.8l0.5,0.2c1.8-3.7,3.9-7.1,6.5-10.3l-0.5-0.4C131.8,563.6,129.6,567.1,127.8,570.8z
			 M142.6,551.3l0.4,0.4c2.8-2.6,5.8-5.1,8.9-7.4c0.2-0.1,0.3-0.3,0.5-0.4l-0.3-0.5c-0.2,0.1-0.4,0.3-0.5,0.4
			C148.5,546.2,145.5,548.7,142.6,551.3z M162.4,536.7l0.3,0.5c3.4-2,7-4,10.7-5.9l-0.3-0.5C169.4,532.6,165.8,534.6,162.4,536.7z
			 M184.3,525.5l0.2,0.5c3.6-1.6,7.5-3.1,11.4-4.6l-0.2-0.5C191.7,522.3,187.9,523.9,184.3,525.5L184.3,525.5z M207.3,516.8l0.2,0.5
			c1-0.3,2-0.7,3.1-1c2.8-0.9,5.7-1.7,8.7-2.6l-0.2-0.6c-2.9,0.8-5.9,1.7-8.7,2.6C209.3,516.2,208.3,516.5,207.3,516.8L207.3,516.8z
			 M234.5,509.3c-1.2,0.3-2.4,0.6-3.6,0.9l0.1,0.6c1.2-0.3,2.4-0.6,3.6-0.9c1.1-0.3,2.3-0.5,3.4-0.8c1.6-0.4,3.3-0.7,5-1.1l-0.1-0.6
			c-1.7,0.3-3.3,0.7-5,1.1C236.8,508.8,235.7,509,234.5,509.3L234.5,509.3z M255,505.2l0.1,0.6c4-0.7,8-1.3,12.1-1.9l-0.1-0.6
			C263,503.8,258.9,504.5,255,505.2z M279.3,501.6l0.1,0.6c4-0.5,8.1-0.9,12.2-1.3l-0.1-0.6C287.4,500.8,283.3,501.2,279.3,501.6z
			 M303.8,499.5l0,0.6c4-0.3,8.2-0.5,12.3-0.6l0-0.6C311.9,499,307.8,499.2,303.8,499.5L303.8,499.5z"/>
		<path fill="#F2F2F2" d="M188.3,544c25.5-19,73.3-31.7,128.1-31.7v63.2H168.7C168.7,564,175.8,553.3,188.3,544z"/>
		<path opacity="0.2" fill="#010101" enable-background="new    " d="M78.9,517.2l54.4,13.4l55,13.5l128.1,31.5H42.7
			C42.7,554.3,55.9,534.4,78.9,517.2z"/>
		<polygon fill="#F9B6B7" points="112,505.1 110.1,505.1 109.3,498 112,498 		"/>
		<path fill="#302E41" d="M112.5,506.9l-6,0v-0.1c0-1.3,1-2.3,2.3-2.3h0l3.6,0L112.5,506.9z"/>
		<polygon fill="#F9B6B7" points="128.3,503.7 126.5,504.2 123.8,497.6 126.5,496.8 		"/>
		<path fill="#302E41" d="M129.2,505.3l-5.8,1.5l0-0.1c-0.3-1.2,0.4-2.5,1.6-2.8h0l3.5-0.9L129.2,505.3z"/>
		<path fill="#302E41" d="M104.3,472c-1.1,1.4,2.3,12.8,2.4,13c0.2,0.2-0.2,1.1-0.2,1.1c0,0.2,0.1,0.3,0.2,0.5c0.2,0.2,0,0.3,0,0.6
			c0,0.3,0,0.3,0.3,0.9c0.2,0.4,0.2,0.9,0.2,1.4l2,11.6c-0.3,0.1-0.5,0.4-0.5,0.8c0,0.6,3.1,0.9,4.1,0.8c1.1-0.2-0.8-13.7-0.8-13.7
			s0-3.5,0.3-3.8c0.3-0.3,0-0.3,0-0.9c0-0.6-0.5-1.5-0.3-2c0.2-0.5,0.3-7,0.3-7s3.5,6.6,3.5,7.5s1.1,2.4,1.1,2.4l7,14.3
			c0,0-0.5,0.9,0,1.7c0.5,0.8,2.4,0.2,4.4-0.6c2-0.8-0.8-2-0.8-2l-4.3-12.2c0-0.5,0.1-0.9,0.2-1.4c0.2-0.8-0.5-0.5-0.9-0.8
			c-0.5-0.3-0.3-0.3,0-0.9c0.3-0.6-0.5-2-0.5-2l-2-11.3C120.2,469.9,105.4,470.7,104.3,472z"/>
		<circle fill="#F9B7B8" cx="109.2" cy="440.6" r="4"/>
		<path fill="#4CBA7E" d="M107.7,445.7c0,0-5.4,2.5-5.9,3.7c-0.5,1.2,2.9,12.5,2.9,12.5s0.2,4.8-0.4,6.6c-0.6,1.8-0.5,2.1-0.5,2.1
			v1.4c0,0.8,4.9,0.2,7.3-0.6c2.4-0.8,8.7-0.6,9.3-0.8c0.6-0.2-1-2.1-1-2.1c2.1-0.2,0-4.6,0-4.6s-0.2-14.5-0.8-16.5
			c-0.6-2-6.3-2.3-6.3-2.3l-2.9,1L107.7,445.7z"/>
		<path fill="#302E41" d="M114,439.5c0.2-1,0-2-0.5-2.9c-0.7-1-1.7-1.7-2.9-1.9c-1.2-0.2-2.4,0-3.4,0.6c-0.6,0.3-1.3,0.7-2,0.5
			l0.2,0.3l-0.5,0l0.2,0.4l-0.5,0.1l0.4,0.2c-0.5,0.9-0.8,1.8-1,2.8c-0.1,0.4-0.1,0.8,0.1,1.2c0.2,0.3,0.6,0.6,0.9,0.3
			c0.2-0.2,0.2-0.4,0.4-0.6c0.1-0.2,0.4-0.4,0.6-0.2l0.4-0.8l0.3,0.3c0.8-0.7,1.7-1.2,2.6-1.6c0.2-0.1,0.5-0.1,0.8,0
			c0.4,0.2,0.3,0.8,0.6,1.2c0.4,0.6,1.4,0.3,1.8,0.9c0.1,0.2,0.2,0.5,0.2,0.8c0.1,0.3,0.2,0.5,0.5,0.5
			C113.6,441.1,113.8,440.4,114,439.5z"/>
		<path fill="#F9B7B8" d="M123.6,471c-0.8-0.5-1-1.6-0.4-2.3c0.1-0.1,0.1-0.2,0.2-0.2l-2.7-5.3l3.1,0.4l2.1,5
			c0.6,0.7,0.6,1.8-0.1,2.4C125.1,471.4,124.2,471.5,123.6,471L123.6,471z"/>
		<path fill="#4CBA7E" d="M121.4,467.2l-3.1-10.1l-3.5-7.7c-0.5-1.2,0-2.6,1.2-3.1c0.2-0.1,0.4-0.1,0.5-0.2l0,0
			c1.2-0.2,2.3,0.4,2.7,1.5l6.5,18.5c0.1,0.4-0.1,0.8-0.5,1c0,0-0.1,0-0.1,0l-2.8,0.6c-0.1,0-0.1,0-0.2,0
			C121.8,467.7,121.5,467.5,121.4,467.2z"/>
		<path fill="#F9B7B8" d="M102.2,474.5c0.6-0.7,0.6-1.7-0.1-2.4c-0.1-0.1-0.1-0.1-0.2-0.2l1.4-5.8l-2.9,1l-0.9,5.3
			c-0.5,0.8-0.2,1.8,0.6,2.3C100.8,475.2,101.7,475.1,102.2,474.5z"/>
		<path fill="#4CBA7E" d="M102.9,471c-0.1,0-0.1,0-0.2,0l-2.8,0c-0.4,0-0.8-0.3-0.8-0.7c0,0,0-0.1,0-0.1l2.3-19.4
			c0.1-1.2,1.1-2,2.3-2.1l0,0c1.3,0,2.4,1,2.4,2.3c0,0.2,0,0.4-0.1,0.6l-1.8,8.3l-0.8,10.5C103.5,470.6,103.2,470.9,102.9,471z"/>
	</g>
	<g>
		<path fill="#547DBF" d="M150.6,54.7h-4.3c-0.9-1.6-2.4-2.4-4.4-2.4c-3.4,0-5.7,2.4-5.7,6.1c0,3.8,2.4,6.2,5.8,6.2
			c2.9,0,4.7-1.7,5.3-4.3h-6.4v-2.9h10.1v3.3c-0.8,3.8-4.2,7.3-9.1,7.3c-5.4,0-9.6-3.9-9.6-9.5c0-5.6,4.1-9.6,9.5-9.6
			C146.1,48.8,149.4,51,150.6,54.7z"/>
		<path fill="#CB4A3E" d="M160.4,68c-4.3,0-7.5-3-7.5-7.7c0-4.7,3.4-7.7,7.6-7.7s7.6,3,7.6,7.7C168.2,65,164.8,68,160.4,68z
			 M160.4,64.8c2,0,3.9-1.4,3.9-4.4c0-3-1.9-4.4-3.8-4.4c-2,0-3.8,1.4-3.8,4.4C156.7,63.3,158.4,64.8,160.4,64.8z"/>
		<path fill="#F9BB16" d="M177.6,68c-4.3,0-7.5-3-7.5-7.7c0-4.7,3.4-7.7,7.6-7.7s7.6,3,7.6,7.7C185.3,65,181.9,68,177.6,68z
			 M177.6,64.8c2,0,3.9-1.4,3.9-4.4c0-3-1.9-4.4-3.8-4.4c-2,0-3.8,1.4-3.8,4.4C173.8,63.3,175.5,64.8,177.6,64.8z"/>
		<path fill="#547DBF" d="M193.9,52.7c2.3,0,4,1.1,4.9,2.4v-2.1h3.8v15c0,4-2.5,7.2-7.3,7.2c-4.2,0-7.1-2.1-7.5-5.5h3.7
			c0.4,1.3,1.8,2.2,3.6,2.2c2.1,0,3.7-1.2,3.7-3.9v-2.3c-0.9,1.3-2.6,2.4-4.9,2.4c-3.8,0-6.8-3.1-6.8-7.7S190.1,52.7,193.9,52.7z
			 M194.8,56c-2,0-3.9,1.5-3.9,4.3c0,2.8,1.9,4.4,3.9,4.4c2.1,0,3.9-1.6,3.9-4.4C198.8,57.5,196.9,56,194.8,56z"/>
		<path fill="#2FA952" d="M206.2,47.9h3.8v19.8h-3.8V47.9z"/>
		<path fill="#CB4A3E" d="M222.6,67.6c-4.1,1.4-8-0.5-9.5-4.9c-1.5-4.4,0.4-8.2,4.6-9.7c4.1-1.4,7.9,0.4,9.3,4.6
			c0.2,0.5,0.3,0.9,0.4,1.4l-10.3,3.5c0.9,2,2.7,2.7,4.5,2.1c1.5-0.5,2.1-1.6,2.2-2.7l3.8-1.3C227.8,63.6,226.1,66.4,222.6,67.6z
			 M216.3,60.2l6.7-2.3c-0.7-1.8-2.5-2.5-4.4-1.9C216.9,56.6,215.9,58.2,216.3,60.2z"/>
	</g>
	<g>
		<text transform="matrix(1 0 0 1 42.6504 118.6846)" fill="#1E1E1E" font-family="'Poppins-SemiBold'" font-size="16">Log in</text>
	</g>
	<g>
		<text transform="matrix(1 0 0 1 43.6543 156.9878)" fill="#3A3A3A" font-family="'Poppins-Regular'" font-size="10">Your Email :</text>
	</g>
	<path fill="#F3F3F3" stroke="#4DBA80" stroke-width="0.7" stroke-miterlimit="10" d="M48.7,205h262.7c2.8,0,5-2.2,5-5v-26.4
		c0-2.8-2.2-5-5-5H48.7c-2.8,0-5,2.2-5,5V200C43.7,202.8,45.9,205,48.7,205z"/>
	<path fill="#F2F2F2" stroke="#4DBA80" stroke-width="0.7" stroke-miterlimit="10" d="M48.7,204.8h29.6v-36.1H48.7c-2.8,0-5,2.2-5,5
		v26.1C43.7,202.5,45.9,204.8,48.7,204.8z"/>
	<g>
		<g>
			<text transform="matrix(1 0 0 1 102.25 189.8008)" fill="#565656" font-family="'Poppins-Regular'" font-size="10">exaple@gmail.com</text>
		</g>
	</g>
	<path fill="#3A3A3A" d="M51.7,182.3c0.1-0.4,0.2-0.7,0.5-0.9c0.3-0.2,0.5-0.3,0.9-0.3c0.1,0,0.3,0,0.4,0c4.2,0,8.5,0,12.7,0
		c0.6,0,1.1,0.3,1.3,0.8c0.1,0.2,0.1,0.4,0.1,0.6c0,2.8,0,5.6,0,8.4c0,0.8-0.6,1.4-1.4,1.4c-4.4,0-8.8,0-13.2,0
		c-0.7,0-1.2-0.4-1.4-1.1c0,0,0-0.1,0-0.1C51.7,188.2,51.7,185.2,51.7,182.3z M53.4,182C53.4,182.1,53.4,182.1,53.4,182
		c1.8,1.8,3.6,3.6,5.4,5.3c0.6,0.6,1.4,0.6,2,0c1.8-1.7,3.5-3.5,5.3-5.2c0,0,0-0.1,0.1-0.1C61.9,182,57.6,182,53.4,182z M53.4,191.4
		c4.2,0,8.4,0,12.6,0c-1.3-1.3-2.6-2.7-4-4c-0.3,0.3-0.5,0.6-0.8,0.8c-0.8,0.6-1.6,0.8-2.5,0.4c-0.3-0.1-0.5-0.3-0.7-0.5
		c-0.2-0.2-0.4-0.4-0.6-0.6C56.1,188.7,54.7,190.1,53.4,191.4z M56.6,186.7c-1.3-1.3-2.6-2.7-3.9-4c0,2.7,0,5.3,0,8c0,0,0,0,0,0
		C54,189.4,55.4,188,56.6,186.7z M66.8,182.7c-1.3,1.4-2.7,2.7-3.9,4c1.3,1.3,2.6,2.7,3.9,4C66.8,188,66.8,185.4,66.8,182.7z"/>
	<path fill="#4DBA80" d="M48.7,334.5h262.7c2.8,0,5-2.2,5-5v-26.4c0-2.8-2.2-5-5-5H48.7c-2.8,0-5,2.2-5,5v26.4
		C43.7,332.2,45.9,334.5,48.7,334.5z"/>
	<g>
		
			<text transform="matrix(1 0 0 1 152.8604 322.0752)" fill="#F2F2F2" stroke="#4CBB7F" stroke-width="0.7" stroke-miterlimit="10" font-family="'Poppins-SemiBold'" font-size="16">Login</text>
	</g>
	<g>
		<path fill="#3A3A3A" d="M44.2,349.1h0.6v4.9h-0.6V349.1z"/>
		<path fill="#3A3A3A" d="M46,350.7h-0.5v-0.5H46v-0.3c0-0.9,0.4-1.2,1.4-1.2v0.5c-0.6,0-0.8,0.2-0.8,0.7v0.3h0.8v0.5h-0.8v3.3H46
			V350.7z"/>
		<path fill="#3A3A3A" d="M52.7,350.2h0.7l-2.3,5.6h-0.7l0.8-1.8l-1.5-3.8h0.7l1.2,3.1L52.7,350.2z"/>
		<path fill="#3A3A3A" d="M55.7,354.1c-1.1,0-1.9-0.8-1.9-2c0-1.2,0.9-2,1.9-2c1.1,0,1.9,0.8,1.9,2
			C57.7,353.3,56.8,354.1,55.7,354.1z M55.7,353.5c0.7,0,1.3-0.5,1.3-1.4c0-1-0.6-1.4-1.3-1.4c-0.7,0-1.3,0.5-1.3,1.4
			C54.4,353.1,55,353.5,55.7,353.5z"/>
		<path fill="#3A3A3A" d="M61.9,354h-0.6v-0.6c-0.2,0.4-0.7,0.6-1.2,0.6c-0.9,0-1.6-0.5-1.6-1.6v-2.2h0.6v2.2c0,0.8,0.4,1.2,1.1,1.2
			c0.7,0,1.1-0.4,1.1-1.2v-2.1h0.6V354z"/>
		<path fill="#3A3A3A" d="M66.5,350.1c1,0,1.6,0.5,1.8,1.3h-0.7c-0.1-0.5-0.5-0.8-1.1-0.8c-0.7,0-1.2,0.5-1.2,1.4
			c0,1,0.5,1.4,1.2,1.4c0.6,0,0.9-0.3,1.1-0.8h0.7c-0.2,0.8-0.8,1.3-1.8,1.3c-1.1,0-1.9-0.8-1.9-2C64.6,350.9,65.4,350.1,66.5,350.1
			z"/>
		<path fill="#3A3A3A" d="M70.7,350.1c0.7,0,1.2,0.4,1.4,0.8v-0.7h0.6v3.8h-0.6v-0.7c-0.2,0.4-0.7,0.8-1.4,0.8c-1,0-1.8-0.8-1.8-2
			C68.9,350.9,69.7,350.1,70.7,350.1z M70.8,350.7c-0.7,0-1.3,0.5-1.3,1.4c0,0.9,0.6,1.4,1.3,1.4c0.7,0,1.3-0.5,1.3-1.4
			C72.1,351.2,71.5,350.7,70.8,350.7z"/>
		<path fill="#3A3A3A" d="M76.6,351.9c0-0.8-0.4-1.2-1.1-1.2c-0.7,0-1.1,0.4-1.1,1.2v2.1h-0.6v-3.8h0.6v0.5c0.3-0.4,0.7-0.6,1.2-0.6
			c0.9,0,1.6,0.5,1.6,1.6v2.3h-0.6V351.9z"/>
		<path fill="#3A3A3A" d="M83,351.9c0-0.8-0.4-1.2-1.1-1.2c-0.7,0-1.1,0.4-1.1,1.2v2.1h-0.6v-3.8h0.6v0.5c0.3-0.4,0.7-0.6,1.2-0.6
			c0.9,0,1.6,0.5,1.6,1.6v2.3H83V351.9z"/>
		<path fill="#3A3A3A" d="M86.3,354.1c-1.1,0-1.9-0.8-1.9-2c0-1.2,0.9-2,1.9-2c1.1,0,1.9,0.8,1.9,2
			C88.3,353.3,87.4,354.1,86.3,354.1z M86.3,353.5c0.7,0,1.3-0.5,1.3-1.4c0-1-0.6-1.4-1.3-1.4c-0.7,0-1.3,0.5-1.3,1.4
			C85.1,353.1,85.7,353.5,86.3,353.5z"/>
		<path fill="#3A3A3A" d="M89.3,350.7h-0.5v-0.5h0.5v-1h0.6v1h1v0.5h-1v2.3c0,0.4,0.1,0.5,0.5,0.5h0.5v0.5h-0.6
			c-0.7,0-1.1-0.3-1.1-1.1V350.7z"/>
		<path fill="#3A3A3A" d="M94.2,354h-0.6v-3.8h0.6v0.6c0.2-0.4,0.6-0.7,1.2-0.7v0.7h-0.2c-0.6,0-1.1,0.3-1.1,1.2V354z"/>
		<path fill="#3A3A3A" d="M97.8,354.1c-1.1,0-1.9-0.8-1.9-2c0-1.2,0.8-2,1.9-2c1.1,0,1.8,0.8,1.8,1.8c0,0.1,0,0.3,0,0.4h-3.1
			c0,0.8,0.6,1.2,1.2,1.2c0.6,0,0.9-0.3,1.1-0.7h0.7C99.4,353.5,98.8,354.1,97.8,354.1z M96.6,351.8H99c0-0.7-0.6-1.2-1.2-1.2
			C97.2,350.7,96.7,351.1,96.6,351.8z"/>
		<path fill="#3A3A3A" d="M106.1,351.9c0-0.8-0.4-1.2-1.1-1.2c-0.6,0-1.1,0.4-1.1,1.2v2.1h-0.6v-2.2c0-0.8-0.4-1.2-1-1.2
			c-0.6,0-1.1,0.4-1.1,1.2v2.1h-0.6v-3.8h0.6v0.6c0.3-0.4,0.7-0.6,1.2-0.6c0.6,0,1.2,0.3,1.4,0.9c0.2-0.6,0.8-0.9,1.4-0.9
			c0.9,0,1.6,0.5,1.6,1.6v2.3h-0.6V351.9z"/>
		<path fill="#3A3A3A" d="M109.4,354.1c-1.1,0-1.9-0.8-1.9-2c0-1.2,0.8-2,1.9-2c1.1,0,1.8,0.8,1.8,1.8c0,0.1,0,0.3,0,0.4h-3.1
			c0,0.8,0.6,1.2,1.2,1.2c0.6,0,0.9-0.3,1.1-0.7h0.7C111,353.5,110.3,354.1,109.4,354.1z M108.1,351.8h2.4c0-0.7-0.6-1.2-1.2-1.2
			C108.7,350.7,108.2,351.1,108.1,351.8z"/>
		<path fill="#3A3A3A" d="M117.6,351.9c0-0.8-0.4-1.2-1.1-1.2c-0.6,0-1.1,0.4-1.1,1.2v2.1h-0.6v-2.2c0-0.8-0.4-1.2-1-1.2
			c-0.6,0-1.1,0.4-1.1,1.2v2.1h-0.6v-3.8h0.6v0.6c0.3-0.4,0.7-0.6,1.2-0.6c0.6,0,1.2,0.3,1.4,0.9c0.2-0.6,0.8-0.9,1.4-0.9
			c0.9,0,1.6,0.5,1.6,1.6v2.3h-0.6V351.9z"/>
		<path fill="#3A3A3A" d="M121.3,350.1c1,0,1.8,0.8,1.8,2c0,1.2-0.8,2-1.8,2c-0.7,0-1.2-0.4-1.4-0.8v0.7h-0.6v-5.2h0.6v2.1
			C120.2,350.5,120.7,350.1,121.3,350.1z M121.2,350.7c-0.7,0-1.3,0.5-1.3,1.4c0,0.9,0.6,1.4,1.3,1.4c0.7,0,1.3-0.5,1.3-1.4
			C122.5,351.2,121.9,350.7,121.2,350.7z"/>
		<path fill="#3A3A3A" d="M125.7,354.1c-1.1,0-1.9-0.8-1.9-2c0-1.2,0.8-2,1.9-2c1.1,0,1.8,0.8,1.8,1.8c0,0.1,0,0.3,0,0.4h-3.1
			c0,0.8,0.6,1.2,1.2,1.2c0.6,0,0.9-0.3,1.1-0.7h0.7C127.2,353.5,126.6,354.1,125.7,354.1z M124.4,351.8h2.4c0-0.7-0.6-1.2-1.2-1.2
			C125,350.7,124.5,351.1,124.4,351.8z"/>
		<path fill="#3A3A3A" d="M129,354h-0.6v-3.8h0.6v0.6c0.2-0.4,0.6-0.7,1.2-0.7v0.7h-0.2c-0.6,0-1.1,0.3-1.1,1.2V354z"/>
		<path fill="#3A3A3A" d="M135.5,350.2h0.7l-2.3,5.6h-0.7l0.8-1.8l-1.5-3.8h0.7l1.2,3.1L135.5,350.2z"/>
		<path fill="#3A3A3A" d="M138.4,354.1c-1.1,0-1.9-0.8-1.9-2c0-1.2,0.9-2,1.9-2c1.1,0,1.9,0.8,1.9,2
			C140.4,353.3,139.5,354.1,138.4,354.1z M138.4,353.5c0.7,0,1.3-0.5,1.3-1.4c0-1-0.6-1.4-1.3-1.4c-0.7,0-1.3,0.5-1.3,1.4
			C137.2,353.1,137.8,353.5,138.4,353.5z"/>
		<path fill="#3A3A3A" d="M144.7,354H144v-0.6c-0.2,0.4-0.7,0.6-1.2,0.6c-0.9,0-1.6-0.5-1.6-1.6v-2.2h0.6v2.2c0,0.8,0.4,1.2,1.1,1.2
			c0.7,0,1.1-0.4,1.1-1.2v-2.1h0.6V354z"/>
		<path fill="#3A3A3A" d="M146.4,354h-0.6v-3.8h0.6v0.6c0.2-0.4,0.6-0.7,1.2-0.7v0.7h-0.2c-0.6,0-1.1,0.3-1.1,1.2V354z"/>
		<path fill="#3A3A3A" d="M152.3,350.1c1,0,1.8,0.8,1.8,2c0,1.2-0.8,2-1.8,2c-0.7,0-1.2-0.4-1.4-0.8v2.5h-0.6v-5.7h0.6v0.7
			C151.1,350.5,151.6,350.1,152.3,350.1z M152.1,350.7c-0.7,0-1.3,0.5-1.3,1.4c0,0.9,0.6,1.4,1.3,1.4c0.7,0,1.3-0.5,1.3-1.4
			C153.4,351.2,152.9,350.7,152.1,350.7z"/>
		<path fill="#3A3A3A" d="M156.5,350.1c0.7,0,1.2,0.4,1.4,0.8v-0.7h0.6v3.8H158v-0.7c-0.2,0.4-0.7,0.8-1.4,0.8c-1,0-1.8-0.8-1.8-2
			C154.7,350.9,155.5,350.1,156.5,350.1z M156.6,350.7c-0.7,0-1.3,0.5-1.3,1.4c0,0.9,0.6,1.4,1.3,1.4c0.7,0,1.3-0.5,1.3-1.4
			C158,351.2,157.3,350.7,156.6,350.7z"/>
		<path fill="#3A3A3A" d="M161,354.1c-0.9,0-1.5-0.5-1.6-1.2h0.7c0,0.4,0.4,0.7,0.9,0.7c0.5,0,0.8-0.3,0.8-0.6
			c0-0.9-2.3-0.4-2.3-1.8c0-0.6,0.6-1.1,1.4-1.1c0.8,0,1.4,0.5,1.4,1.2h-0.6c0-0.4-0.3-0.7-0.8-0.7c-0.5,0-0.7,0.2-0.7,0.5
			c0,0.9,2.2,0.4,2.3,1.8C162.4,353.6,161.9,354.1,161,354.1z"/>
		<path fill="#3A3A3A" d="M164.7,354.1c-0.9,0-1.5-0.5-1.6-1.2h0.7c0,0.4,0.4,0.7,0.9,0.7c0.5,0,0.8-0.3,0.8-0.6
			c0-0.9-2.3-0.4-2.3-1.8c0-0.6,0.6-1.1,1.4-1.1c0.8,0,1.4,0.5,1.4,1.2h-0.6c0-0.4-0.3-0.7-0.8-0.7c-0.5,0-0.7,0.2-0.7,0.5
			c0,0.9,2.2,0.4,2.3,1.8C166.1,353.6,165.5,354.1,164.7,354.1z"/>
		<path fill="#3A3A3A" d="M166.5,350.2h0.7l0.9,3.2l1-3.2h0.7l0.9,3.2l0.9-3.2h0.6l-1.2,3.8h-0.7l-0.9-3l-0.9,3h-0.7L166.5,350.2z"
			/>
		<path fill="#3A3A3A" d="M174.4,354.1c-1.1,0-1.9-0.8-1.9-2c0-1.2,0.9-2,1.9-2c1.1,0,1.9,0.8,1.9,2
			C176.4,353.3,175.5,354.1,174.4,354.1z M174.4,353.5c0.7,0,1.3-0.5,1.3-1.4c0-1-0.6-1.4-1.3-1.4c-0.7,0-1.3,0.5-1.3,1.4
			C173.1,353.1,173.7,353.5,174.4,353.5z"/>
		<path fill="#3A3A3A" d="M177.8,354h-0.6v-3.8h0.6v0.6c0.2-0.4,0.6-0.7,1.2-0.7v0.7h-0.2c-0.6,0-1.1,0.3-1.1,1.2V354z"/>
		<path fill="#3A3A3A" d="M181.4,350.1c0.6,0,1.2,0.3,1.4,0.8v-2h0.6v5.2h-0.6v-0.7c-0.2,0.4-0.7,0.8-1.4,0.8c-1,0-1.8-0.8-1.8-2
			C179.6,350.9,180.4,350.1,181.4,350.1z M181.5,350.7c-0.7,0-1.3,0.5-1.3,1.4c0,0.9,0.6,1.4,1.3,1.4c0.7,0,1.3-0.5,1.3-1.4
			C182.8,351.2,182.2,350.7,181.5,350.7z"/>
		<path fill="#3A3A3A" d="M184.5,353.1h0.7l-0.8,1.9H184L184.5,353.1z"/>
		<path fill="#3A3A3A" d="M187.9,350.7h-0.5v-0.5h0.5v-0.3c0-0.9,0.4-1.2,1.4-1.2v0.5c-0.6,0-0.8,0.2-0.8,0.7v0.3h0.8v0.5h-0.8v3.3
			h-0.6V350.7z"/>
		<path fill="#3A3A3A" d="M191.8,354.1c-1.1,0-1.9-0.8-1.9-2c0-1.2,0.9-2,1.9-2c1.1,0,1.9,0.8,1.9,2
			C193.7,353.3,192.9,354.1,191.8,354.1z M191.8,353.5c0.7,0,1.3-0.5,1.3-1.4c0-1-0.6-1.4-1.3-1.4c-0.7,0-1.3,0.5-1.3,1.4
			C190.5,353.1,191.1,353.5,191.8,353.5z"/>
		<path fill="#3A3A3A" d="M195.2,354h-0.6v-3.8h0.6v0.6c0.2-0.4,0.6-0.7,1.2-0.7v0.7h-0.2c-0.6,0-1.1,0.3-1.1,1.2V354z"/>
		<path fill="#3A3A3A" d="M200.6,350.1c0.7,0,1.2,0.4,1.4,0.8v-0.7h0.6v3.8h-0.6v-0.7c-0.2,0.4-0.7,0.8-1.4,0.8c-1,0-1.8-0.8-1.8-2
			C198.8,350.9,199.6,350.1,200.6,350.1z M200.8,350.7c-0.7,0-1.3,0.5-1.3,1.4c0,0.9,0.6,1.4,1.3,1.4c0.7,0,1.3-0.5,1.3-1.4
			C202.1,351.2,201.5,350.7,200.8,350.7z"/>
		<path fill="#3A3A3A" d="M208.5,351.9c0-0.8-0.4-1.2-1.1-1.2c-0.7,0-1.1,0.4-1.1,1.2v2.1h-0.6v-3.8h0.6v0.5
			c0.3-0.4,0.7-0.6,1.2-0.6c0.9,0,1.6,0.5,1.6,1.6v2.3h-0.6V351.9z"/>
		<path fill="#3A3A3A" d="M211.8,354.1c-1.1,0-1.9-0.8-1.9-2c0-1.2,0.8-2,1.9-2c1.1,0,1.8,0.8,1.8,1.8c0,0.1,0,0.3,0,0.4h-3.1
			c0,0.8,0.6,1.2,1.2,1.2c0.6,0,0.9-0.3,1.1-0.7h0.7C213.4,353.5,212.8,354.1,211.8,354.1z M210.6,351.8h2.4c0-0.7-0.6-1.2-1.2-1.2
			C211.1,350.7,210.6,351.1,210.6,351.8z"/>
		<path fill="#3A3A3A" d="M214,350.2h0.7l0.9,3.2l1-3.2h0.7l0.9,3.2l0.9-3.2h0.6l-1.2,3.8h-0.7l-0.9-3l-0.9,3h-0.7L214,350.2z"/>
		<path fill="#3A3A3A" d="M224.2,350.1c1,0,1.8,0.8,1.8,2c0,1.2-0.8,2-1.8,2c-0.7,0-1.2-0.4-1.4-0.8v2.5h-0.6v-5.7h0.6v0.7
			C223,350.5,223.5,350.1,224.2,350.1z M224,350.7c-0.7,0-1.3,0.5-1.3,1.4c0,0.9,0.6,1.4,1.3,1.4c0.7,0,1.3-0.5,1.3-1.4
			C225.3,351.2,224.7,350.7,224,350.7z"/>
		<path fill="#3A3A3A" d="M228.4,350.1c0.7,0,1.2,0.4,1.4,0.8v-0.7h0.6v3.8h-0.6v-0.7c-0.2,0.4-0.7,0.8-1.4,0.8c-1,0-1.8-0.8-1.8-2
			C226.6,350.9,227.4,350.1,228.4,350.1z M228.5,350.7c-0.7,0-1.3,0.5-1.3,1.4c0,0.9,0.6,1.4,1.3,1.4c0.7,0,1.3-0.5,1.3-1.4
			C229.8,351.2,229.2,350.7,228.5,350.7z"/>
		<path fill="#3A3A3A" d="M232.9,354.1c-0.9,0-1.5-0.5-1.6-1.2h0.7c0,0.4,0.4,0.7,0.9,0.7c0.5,0,0.8-0.3,0.8-0.6
			c0-0.9-2.3-0.4-2.3-1.8c0-0.6,0.6-1.1,1.4-1.1c0.8,0,1.4,0.5,1.4,1.2h-0.6c0-0.4-0.3-0.7-0.8-0.7c-0.5,0-0.7,0.2-0.7,0.5
			c0,0.9,2.2,0.4,2.3,1.8C234.3,353.6,233.8,354.1,232.9,354.1z"/>
		<path fill="#3A3A3A" d="M236.6,354.1c-0.9,0-1.5-0.5-1.6-1.2h0.7c0,0.4,0.4,0.7,0.9,0.7c0.5,0,0.8-0.3,0.8-0.6
			c0-0.9-2.3-0.4-2.3-1.8c0-0.6,0.6-1.1,1.4-1.1c0.8,0,1.4,0.5,1.4,1.2h-0.6c0-0.4-0.3-0.7-0.8-0.7c-0.5,0-0.7,0.2-0.7,0.5
			c0,0.9,2.2,0.4,2.3,1.8C238,353.6,237.4,354.1,236.6,354.1z"/>
		<path fill="#3A3A3A" d="M238.4,350.2h0.7l0.9,3.2l1-3.2h0.7l0.9,3.2l0.9-3.2h0.6l-1.2,3.8h-0.7l-0.9-3l-0.9,3h-0.7L238.4,350.2z"
			/>
		<path fill="#3A3A3A" d="M246.3,354.1c-1.1,0-1.9-0.8-1.9-2c0-1.2,0.9-2,1.9-2c1.1,0,1.9,0.8,1.9,2
			C248.2,353.3,247.4,354.1,246.3,354.1z M246.3,353.5c0.7,0,1.3-0.5,1.3-1.4c0-1-0.6-1.4-1.3-1.4c-0.7,0-1.3,0.5-1.3,1.4
			C245,353.1,245.6,353.5,246.3,353.5z"/>
		<path fill="#3A3A3A" d="M249.7,354h-0.6v-3.8h0.6v0.6c0.2-0.4,0.6-0.7,1.2-0.7v0.7h-0.2c-0.6,0-1.1,0.3-1.1,1.2V354z"/>
		<path fill="#3A3A3A" d="M253.3,350.1c0.6,0,1.2,0.3,1.4,0.8v-2h0.6v5.2h-0.6v-0.7c-0.2,0.4-0.7,0.8-1.4,0.8c-1,0-1.8-0.8-1.8-2
			C251.5,350.9,252.2,350.1,253.3,350.1z M253.4,350.7c-0.7,0-1.3,0.5-1.3,1.4c0,0.9,0.6,1.4,1.3,1.4c0.7,0,1.3-0.5,1.3-1.4
			C254.7,351.2,254.1,350.7,253.4,350.7z"/>
		<path fill="#3A3A3A" d="M256.4,353.1h0.7l-0.8,1.9h-0.4L256.4,353.1z"/>
		<path fill="#3A3A3A" d="M261.8,350.1c1,0,1.8,0.8,1.8,2c0,1.2-0.8,2-1.8,2c-0.7,0-1.2-0.4-1.4-0.8v2.5h-0.6v-5.7h0.6v0.7
			C260.5,350.5,261.1,350.1,261.8,350.1z M261.6,350.7c-0.7,0-1.3,0.5-1.3,1.4c0,0.9,0.6,1.4,1.3,1.4c0.7,0,1.3-0.5,1.3-1.4
			C262.9,351.2,262.3,350.7,261.6,350.7z"/>
		<path fill="#3A3A3A" d="M264.4,348.8h0.6v5.2h-0.6V348.8z"/>
		<path fill="#3A3A3A" d="M267.8,354.1c-1.1,0-1.9-0.8-1.9-2c0-1.2,0.8-2,1.9-2c1.1,0,1.8,0.8,1.8,1.8c0,0.1,0,0.3,0,0.4h-3.1
			c0,0.8,0.6,1.2,1.2,1.2c0.6,0,0.9-0.3,1.1-0.7h0.7C269.4,353.5,268.7,354.1,267.8,354.1z M266.6,351.8h2.4c0-0.7-0.6-1.2-1.2-1.2
			C267.1,350.7,266.6,351.1,266.6,351.8z"/>
		<path fill="#3A3A3A" d="M272.1,350.1c0.7,0,1.2,0.4,1.4,0.8v-0.7h0.6v3.8h-0.6v-0.7c-0.2,0.4-0.7,0.8-1.4,0.8c-1,0-1.8-0.8-1.8-2
			C270.2,350.9,271,350.1,272.1,350.1z M272.2,350.7c-0.7,0-1.3,0.5-1.3,1.4c0,0.9,0.6,1.4,1.3,1.4c0.7,0,1.3-0.5,1.3-1.4
			C273.5,351.2,272.9,350.7,272.2,350.7z"/>
		<path fill="#3A3A3A" d="M276.6,354.1c-0.9,0-1.5-0.5-1.6-1.2h0.7c0,0.4,0.4,0.7,0.9,0.7c0.5,0,0.8-0.3,0.8-0.6
			c0-0.9-2.3-0.4-2.3-1.8c0-0.6,0.6-1.1,1.4-1.1c0.8,0,1.4,0.5,1.4,1.2h-0.6c0-0.4-0.3-0.7-0.8-0.7c-0.5,0-0.7,0.2-0.7,0.5
			c0,0.9,2.2,0.4,2.3,1.8C278,353.6,277.4,354.1,276.6,354.1z"/>
		<path fill="#3A3A3A" d="M280.5,354.1c-1.1,0-1.9-0.8-1.9-2c0-1.2,0.8-2,1.9-2c1.1,0,1.8,0.8,1.8,1.8c0,0.1,0,0.3,0,0.4h-3.1
			c0,0.8,0.6,1.2,1.2,1.2c0.6,0,0.9-0.3,1.1-0.7h0.7C282.1,353.5,281.5,354.1,280.5,354.1z M279.3,351.8h2.4c0-0.7-0.6-1.2-1.2-1.2
			C279.9,350.7,279.3,351.1,279.3,351.8z"/>
		<path fill="#3A3A3A" d="M286.7,350.1c1,0,1.6,0.5,1.8,1.3h-0.7c-0.1-0.5-0.5-0.8-1.1-0.8c-0.7,0-1.2,0.5-1.2,1.4
			c0,1,0.5,1.4,1.2,1.4c0.6,0,0.9-0.3,1.1-0.8h0.7c-0.2,0.8-0.8,1.3-1.8,1.3c-1.1,0-1.9-0.8-1.9-2
			C284.8,350.9,285.6,350.1,286.7,350.1z"/>
		<path fill="#3A3A3A" d="M289.3,348.8h0.6v5.2h-0.6V348.8z"/>
		<path fill="#3A3A3A" d="M290.9,349.1c0-0.2,0.2-0.4,0.4-0.4c0.2,0,0.4,0.2,0.4,0.4s-0.2,0.4-0.4,0.4
			C291.1,349.6,290.9,349.4,290.9,349.1z M291,350.2h0.6v3.8H291V350.2z"/>
		<path fill="#3A3A3A" d="M294.4,350.1c1,0,1.6,0.5,1.8,1.3h-0.7c-0.1-0.5-0.5-0.8-1.1-0.8c-0.7,0-1.2,0.5-1.2,1.4
			c0,1,0.5,1.4,1.2,1.4c0.6,0,0.9-0.3,1.1-0.8h0.7c-0.2,0.8-0.8,1.3-1.8,1.3c-1.1,0-1.9-0.8-1.9-2
			C292.5,350.9,293.3,350.1,294.4,350.1z"/>
		<path fill="#3A3A3A" d="M297,348.8h0.6v3l1.5-1.7h0.9l-1.8,1.9l1.8,1.9h-0.9l-1.5-1.7v1.7H297V348.8z"/>
		<path fill="#00AEEF" d="M302.5,348.8h0.6v1.9c0.3-0.4,0.7-0.6,1.3-0.6c0.9,0,1.5,0.5,1.5,1.6v2.3h-0.6v-2.2c0-0.8-0.4-1.2-1.1-1.2
			c-0.7,0-1.1,0.4-1.1,1.2v2.1h-0.6V348.8z"/>
		<path fill="#00AEEF" d="M308.6,354.1c-1.1,0-1.9-0.8-1.9-2c0-1.2,0.8-2,1.9-2c1.1,0,1.8,0.8,1.8,1.8c0,0.1,0,0.3,0,0.4h-3.1
			c0,0.8,0.6,1.2,1.2,1.2c0.6,0,0.9-0.3,1.1-0.7h0.7C310.2,353.5,309.6,354.1,308.6,354.1z M307.4,351.8h2.4c0-0.7-0.6-1.2-1.2-1.2
			C308,350.7,307.5,351.1,307.4,351.8z"/>
		<path fill="#00AEEF" d="M311.9,354h-0.6v-3.8h0.6v0.6c0.2-0.4,0.6-0.7,1.2-0.7v0.7H313c-0.6,0-1.1,0.3-1.1,1.2V354z"/>
		<path fill="#00AEEF" d="M315.6,354.1c-1.1,0-1.9-0.8-1.9-2c0-1.2,0.8-2,1.9-2c1.1,0,1.8,0.8,1.8,1.8c0,0.1,0,0.3,0,0.4h-3.1
			c0,0.8,0.6,1.2,1.2,1.2c0.6,0,0.9-0.3,1.1-0.7h0.7C317.1,353.5,316.5,354.1,315.6,354.1z M314.3,351.8h2.4c0-0.7-0.6-1.2-1.2-1.2
			C314.9,350.7,314.4,351.1,314.3,351.8z"/>
	</g>
	<g>
		<text transform="matrix(1 0 0 1 43.6543 226.8716)" fill="#3A3A3A" font-family="'Poppins-Regular'" font-size="10">Your Password :</text>
	</g>
	<path fill="#F3F3F3" stroke="#4DBA80" stroke-width="0.7" stroke-miterlimit="10" d="M48.7,274.7h262.7c2.8,0,5-2.2,5-5v-26.4
		c0-2.8-2.2-5-5-5H48.7c-2.8,0-5,2.2-5,5v26.4C43.7,272.4,45.9,274.7,48.7,274.7z"/>
	<path fill="#F2F2F2" stroke="#4DBA80" stroke-width="0.7" stroke-miterlimit="10" d="M48.7,274.6h29.6v-36.1H48.7c-2.8,0-5,2.2-5,5
		v26.1C43.7,272.3,45.9,274.6,48.7,274.6z"/>
	<g>
		<g>
			<text transform="matrix(1 0 0 1 102.25 258.1587)" fill="#565656" font-family="'Poppins-Regular'" font-size="10">..................</text>
		</g>
	</g>
	<g>
		<g>
			<path fill="#3A3A3A" d="M55.6,255.4c0-0.7,0-1.5,0-2.2c0-0.4,0-0.9,0.1-1.3c0.5-2.1,2.1-3.7,4.3-4c2.6-0.4,5.1,1.1,5.9,3.6
				c0.2,0.5,0.2,1.1,0.2,1.7c0,0.7,0,1.3,0,2c0,0.1,0,0.1,0,0.2c0.1,0,0.2,0,0.3,0c0.9,0.2,1.4,0.9,1.4,1.7c0,1.2,0,2.5,0,3.7
				c0,1.3,0,2.6,0,3.9c0,0.8-0.5,1.5-1.3,1.7c-0.2,0-0.3,0.1-0.5,0.1c-3.5,0-7.1,0-10.6,0c-1,0-1.7-0.8-1.7-1.8c0-1.6,0-3.2,0-4.9
				c0-0.9,0-1.8,0-2.7c0-0.9,0.6-1.5,1.4-1.7C55.4,255.4,55.5,255.4,55.6,255.4z M60.9,256.6c-1.7,0-3.5,0-5.2,0
				c-0.5,0-0.7,0.2-0.7,0.7c0,2.5,0,5,0,7.4c0,0.5,0.2,0.7,0.7,0.7c3.5,0,6.9,0,10.4,0c0.5,0,0.7-0.2,0.7-0.7c0-2.5,0-4.9,0-7.4
				c0-0.5-0.2-0.7-0.7-0.7C64.4,256.6,62.7,256.6,60.9,256.6z M65,255.4c0-0.1,0-0.1,0-0.2c0-0.8,0-1.6,0-2.4c0-0.2,0-0.4-0.1-0.5
				c-0.4-2.3-2.5-3.7-4.7-3.3c-1.9,0.3-3.4,2-3.4,3.9c0,0.8,0,1.5,0,2.3c0,0,0,0.1,0,0.2C59.6,255.4,62.3,255.4,65,255.4z"/>
			<path fill="#3A3A3A" d="M60.3,262.5C60.3,262.5,60.3,262.4,60.3,262.5c0-0.4,0-0.7-0.5-1c-0.7-0.4-0.9-1.3-0.6-2.1
				c0.3-0.7,1-1.2,1.8-1.1c0.8,0.1,1.4,0.7,1.5,1.5c0.1,0.8-0.3,1.5-1,1.9c-0.1,0-0.1,0.1-0.1,0.2c0,0.4,0,0.7,0,1.1
				c0,0.4-0.2,0.6-0.6,0.6c-0.4,0-0.6-0.2-0.6-0.6C60.3,262.8,60.3,262.6,60.3,262.5z M60.9,260.7c0.4,0,0.6-0.2,0.6-0.6
				c0-0.3-0.2-0.6-0.6-0.6c-0.3,0-0.6,0.2-0.6,0.6C60.4,260.4,60.6,260.7,60.9,260.7z"/>
		</g>
	</g>
</g>
<g id="Layer_3">
</g>
</svg>
