<?xml version="1.0" encoding="utf-8"?>
<!-- Generator: Adobe Illustrator 18.0.0, SVG Export Plug-In . SVG Version: 6.00 Build 0)  -->
<!DOCTYPE svg PUBLIC "-//W3C//DTD SVG 1.1//EN" "http://www.w3.org/Graphics/SVG/1.1/DTD/svg11.dtd">
<svg version="1.1" xmlns="http://www.w3.org/2000/svg" xmlns:xlink="http://www.w3.org/1999/xlink" x="0px" y="0px"
	 viewBox="0 0 360 640" enable-background="new 0 0 360 640" xml:space="preserve">
<g id="Guides_For_Artboard">
</g>
<g id="Layer_1">
	<g>
		<path fill="#547DBF" d="M150.6,55.1h-4.3c-0.9-1.6-2.4-2.4-4.4-2.4c-3.4,0-5.7,2.4-5.7,6.1c0,3.8,2.4,6.2,5.8,6.2
			c2.9,0,4.7-1.7,5.3-4.3h-6.4v-2.9h10.1V61c-0.8,3.8-4.2,7.3-9.1,7.3c-5.4,0-9.6-3.9-9.6-9.5c0-5.6,4.1-9.6,9.5-9.6
			C146.1,49.2,149.4,51.3,150.6,55.1z"/>
		<path fill="#CB4A3E" d="M160.4,68.4c-4.3,0-7.5-3-7.5-7.7c0-4.7,3.4-7.7,7.6-7.7c4.3,0,7.6,3,7.6,7.7
			C168.2,65.4,164.8,68.4,160.4,68.4z M160.4,65.1c2,0,3.9-1.4,3.9-4.4c0-3-1.9-4.4-3.8-4.4c-2,0-3.8,1.4-3.8,4.4
			C156.7,63.7,158.4,65.1,160.4,65.1z"/>
		<path fill="#F9BB16" d="M177.6,68.4c-4.3,0-7.5-3-7.5-7.7c0-4.7,3.4-7.7,7.6-7.7c4.3,0,7.6,3,7.6,7.7
			C185.3,65.4,181.9,68.4,177.6,68.4z M177.6,65.1c2,0,3.9-1.4,3.9-4.4c0-3-1.9-4.4-3.8-4.4c-2,0-3.8,1.4-3.8,4.4
			C173.8,63.7,175.5,65.1,177.6,65.1z"/>
		<path fill="#547DBF" d="M193.9,53.1c2.3,0,4,1.1,4.9,2.4v-2.1h3.8v15c0,4-2.5,7.2-7.3,7.2c-4.2,0-7.1-2.1-7.5-5.5h3.7
			c0.4,1.3,1.8,2.2,3.6,2.2c2.1,0,3.7-1.2,3.7-3.9V66c-0.9,1.3-2.6,2.4-4.9,2.4c-3.8,0-6.8-3.1-6.8-7.7S190.1,53.1,193.9,53.1z
			 M194.8,56.4c-2,0-3.9,1.5-3.9,4.3c0,2.8,1.9,4.4,3.9,4.4c2.1,0,3.9-1.6,3.9-4.4C198.8,57.9,196.9,56.4,194.8,56.4z"/>
		<path fill="#2FA952" d="M206.2,48.3h3.8v19.8h-3.8V48.3z"/>
		<path fill="#CB4A3E" d="M222.6,68c-4.1,1.4-8-0.5-9.5-4.9c-1.5-4.4,0.4-8.2,4.6-9.7c4.1-1.4,7.9,0.4,9.3,4.6
			c0.2,0.5,0.3,0.9,0.4,1.4l-10.3,3.5c0.9,2,2.7,2.7,4.5,2.1c1.5-0.5,2.1-1.6,2.2-2.7l3.8-1.3C227.8,64,226.1,66.8,222.6,68z
			 M216.3,60.6l6.7-2.3c-0.7-1.8-2.5-2.5-4.4-1.9C216.9,57,215.9,58.5,216.3,60.6z"/>
	</g>
	<g>
		<text transform="matrix(1 0 0 1 42.6177 159.5068)" fill="#1E1E1E" font-family="'Poppins-SemiBold'" font-size="16">Add User</text>
	</g>
	<g>
		<text transform="matrix(1 0 0 1 43.6211 264.7026)" fill="#3A3A3A" font-family="'Poppins-Regular'" font-size="10">Your Email :</text>
	</g>
	<path fill="#F3F3F3" stroke="#4DBA80" stroke-width="0.7" stroke-miterlimit="10" d="M49.1,309.7h262.7c2.8,0,5-2.2,5-5v-26.4
		c0-2.8-2.2-5-5-5H49.1c-2.8,0-5,2.2-5,5v26.4C44.1,307.4,46.4,309.7,49.1,309.7z"/>
	<path fill="#F2F2F2" stroke="#4DBA80" stroke-width="0.7" stroke-miterlimit="10" d="M49.1,309.4h29.6v-36.1H49.1c-2.8,0-5,2.2-5,5
		v26.1C44.1,307.2,46.4,309.4,49.1,309.4z"/>
	<g>
		<g>
			<text transform="matrix(1 0 0 1 102.7339 294.4634)" fill="#565656" font-family="'Poppins-Regular'" font-size="10">exaple@gmail.com</text>
		</g>
	</g>
	<path fill="#3A3A3A" d="M53.4,288.1c0.1-0.4,0.2-0.7,0.5-0.9c0.3-0.2,0.5-0.3,0.9-0.3c0.1,0,0.3,0,0.4,0c4.2,0,8.5,0,12.7,0
		c0.6,0,1.1,0.3,1.3,0.8c0.1,0.2,0.1,0.4,0.1,0.6c0,2.8,0,5.6,0,8.4c0,0.8-0.6,1.4-1.4,1.4c-4.4,0-8.8,0-13.2,0
		c-0.7,0-1.2-0.4-1.4-1.1c0,0,0-0.1,0-0.1C53.4,293.9,53.4,291,53.4,288.1z M55,287.8C55.1,287.8,55.1,287.8,55,287.8
		c1.8,1.8,3.6,3.6,5.4,5.3c0.6,0.6,1.4,0.6,2,0c1.8-1.7,3.5-3.5,5.3-5.2c0,0,0-0.1,0.1-0.1C63.5,287.8,59.3,287.8,55,287.8z
		 M55.1,297.1c4.2,0,8.4,0,12.6,0c-1.3-1.3-2.6-2.7-4-4c-0.3,0.3-0.5,0.6-0.8,0.8c-0.8,0.6-1.6,0.8-2.5,0.4
		c-0.3-0.1-0.5-0.3-0.7-0.5c-0.2-0.2-0.4-0.4-0.6-0.6C57.7,294.5,56.4,295.8,55.1,297.1z M58.3,292.5c-1.3-1.3-2.6-2.7-3.9-4
		c0,2.7,0,5.3,0,8c0,0,0,0,0,0C55.7,295.1,57,293.8,58.3,292.5z M68.5,288.4c-1.3,1.4-2.7,2.7-3.9,4c1.3,1.3,2.6,2.7,3.9,4
		C68.5,293.8,68.5,291.1,68.5,288.4z"/>
	<path fill="#4DBA80" d="M49.2,509.1h262.7c2.8,0,5-2.2,5-5v-26.4c0-2.8-2.2-5-5-5H49.2c-2.8,0-5,2.2-5,5v26.4
		C44.2,506.9,46.4,509.1,49.2,509.1z"/>
	<g>
		
			<text transform="matrix(1 0 0 1 132.5049 496.7373)" fill="#F2F2F2" stroke="#4CBB7F" stroke-width="0.7" stroke-miterlimit="10" font-family="'Poppins-SemiBold'" font-size="16">Create user</text>
	</g>
	<g>
		<text transform="matrix(1 0 0 1 44.1377 331.6094)" fill="#3A3A3A" font-family="'Poppins-Regular'" font-size="10">Your Password :</text>
	</g>
	<path fill="#F3F3F3" stroke="#4DBA80" stroke-width="0.7" stroke-miterlimit="10" d="M49.1,379.4h262.7c2.8,0,5-2.2,5-5v-26.4
		c0-2.8-2.2-5-5-5H49.1c-2.8,0-5,2.2-5,5v26.4C44.1,377.2,46.4,379.4,49.1,379.4z"/>
	<path fill="#F2F2F2" stroke="#4DBA80" stroke-width="0.7" stroke-miterlimit="10" d="M49.1,379.3h29.6v-36.1H49.1c-2.8,0-5,2.2-5,5
		v26.1C44.1,377.1,46.4,379.3,49.1,379.3z"/>
	<g>
		<g>
			<text transform="matrix(1 0 0 1 102.7339 362.8965)" fill="#565656" font-family="'Poppins-Regular'" font-size="10">..................</text>
		</g>
	</g>
	<g>
		<g>
			<path fill="#3A3A3A" d="M56.1,359.5c0-0.7,0-1.5,0-2.2c0-0.4,0-0.9,0.1-1.3c0.5-2.1,2.1-3.7,4.3-4c2.6-0.4,5.1,1.1,5.9,3.6
				c0.2,0.5,0.2,1.1,0.2,1.7c0,0.7,0,1.3,0,2c0,0.1,0,0.1,0,0.2c0.1,0,0.2,0,0.3,0c0.9,0.2,1.4,0.9,1.4,1.7c0,1.2,0,2.5,0,3.7
				c0,1.3,0,2.6,0,3.9c0,0.8-0.5,1.5-1.3,1.7c-0.2,0-0.3,0.1-0.5,0.1c-3.5,0-7.1,0-10.6,0c-1,0-1.7-0.8-1.7-1.8c0-1.6,0-3.2,0-4.9
				c0-0.9,0-1.8,0-2.7c0-0.9,0.6-1.5,1.4-1.7C55.9,359.5,56,359.5,56.1,359.5z M61.4,360.6c-1.7,0-3.5,0-5.2,0
				c-0.5,0-0.7,0.2-0.7,0.7c0,2.5,0,5,0,7.4c0,0.5,0.2,0.7,0.7,0.7c3.5,0,6.9,0,10.4,0c0.5,0,0.7-0.2,0.7-0.7c0-2.5,0-4.9,0-7.4
				c0-0.5-0.2-0.7-0.7-0.7C64.9,360.6,63.1,360.6,61.4,360.6z M65.5,359.5c0-0.1,0-0.1,0-0.2c0-0.8,0-1.6,0-2.4c0-0.2,0-0.4-0.1-0.5
				c-0.4-2.3-2.5-3.7-4.7-3.3c-1.9,0.3-3.4,2-3.4,3.9c0,0.8,0,1.5,0,2.3c0,0,0,0.1,0,0.2C60.1,359.5,62.8,359.5,65.5,359.5z"/>
			<path fill="#3A3A3A" d="M60.8,366.5C60.8,366.5,60.8,366.5,60.8,366.5c0-0.4,0-0.7-0.5-1c-0.7-0.4-0.9-1.3-0.6-2.1
				c0.3-0.7,1-1.2,1.8-1.1c0.8,0.1,1.4,0.7,1.5,1.5c0.1,0.8-0.3,1.5-1,1.9c-0.1,0-0.1,0.1-0.1,0.2c0,0.4,0,0.7,0,1.1
				c0,0.4-0.2,0.6-0.6,0.6c-0.4,0-0.6-0.2-0.6-0.6C60.8,366.9,60.8,366.7,60.8,366.5z M61.4,364.7c0.4,0,0.6-0.2,0.6-0.6
				c0-0.3-0.2-0.6-0.6-0.6c-0.3,0-0.6,0.2-0.6,0.6C60.8,364.5,61.1,364.7,61.4,364.7z"/>
		</g>
	</g>
	<g>
		<text transform="matrix(1 0 0 1 43.6211 191.082)" fill="#3A3A3A" font-family="'Poppins-Regular'" font-size="10">Phone number :</text>
	</g>
	<path fill="#F3F3F3" stroke="#4DBA80" stroke-width="0.7" stroke-miterlimit="10" d="M48.6,238.9h262.7c2.8,0,5-2.2,5-5v-26.4
		c0-2.8-2.2-5-5-5H48.6c-2.8,0-5,2.2-5,5v26.4C43.6,236.7,45.9,238.9,48.6,238.9z"/>
	<path fill="#F2F2F2" stroke="#4DBA80" stroke-width="0.7" stroke-miterlimit="10" d="M48.6,238.8h29.6v-36.1H48.6c-2.8,0-5,2.2-5,5
		v26.1C43.6,236.5,45.9,238.8,48.6,238.8z"/>
	<g>
		<g>
			<text transform="matrix(1 0 0 1 100.2173 225.3691)" fill="#565656" font-family="'Poppins-Regular'" font-size="10">123456780</text>
		</g>
	</g>
	<g>
		<text transform="matrix(1 0 0 1 44.1377 401.459)" fill="#3A3A3A" font-family="'Poppins-Regular'" font-size="10">Confirm your Password :</text>
	</g>
	<path fill="#F3F3F3" stroke="#4DBA80" stroke-width="0.7" stroke-miterlimit="10" d="M49.1,449.3h262.7c2.8,0,5-2.2,5-5v-26.4
		c0-2.8-2.2-5-5-5H49.1c-2.8,0-5,2.2-5,5v26.4C44.1,447,46.4,449.3,49.1,449.3z"/>
	<path fill="#F2F2F2" stroke="#4DBA80" stroke-width="0.7" stroke-miterlimit="10" d="M49.1,449.1h29.6V413H49.1c-2.8,0-5,2.2-5,5
		v26.1C44.1,446.9,46.4,449.1,49.1,449.1z"/>
	<g>
		<g>
			<text transform="matrix(1 0 0 1 102.7339 432.7461)" fill="#565656" font-family="'Poppins-Regular'" font-size="12">..................</text>
		</g>
	</g>
	<g>
		<g>
			<path fill="#3A3A3A" d="M56.1,429.3c0-0.7,0-1.5,0-2.2c0-0.4,0-0.9,0.1-1.3c0.5-2.1,2.1-3.7,4.3-4c2.6-0.4,5.1,1.1,5.9,3.6
				c0.2,0.5,0.2,1.1,0.2,1.7c0,0.7,0,1.3,0,2c0,0.1,0,0.1,0,0.2c0.1,0,0.2,0,0.3,0c0.9,0.2,1.4,0.9,1.4,1.7c0,1.2,0,2.5,0,3.7
				c0,1.3,0,2.6,0,3.9c0,0.8-0.5,1.5-1.3,1.7c-0.2,0-0.3,0.1-0.5,0.1c-3.5,0-7.1,0-10.6,0c-1,0-1.7-0.8-1.7-1.8c0-1.6,0-3.2,0-4.9
				c0-0.9,0-1.8,0-2.7c0-0.9,0.6-1.5,1.4-1.7C55.9,429.3,56,429.3,56.1,429.3z M61.4,430.5c-1.7,0-3.5,0-5.2,0
				c-0.5,0-0.7,0.2-0.7,0.7c0,2.5,0,5,0,7.4c0,0.5,0.2,0.7,0.7,0.7c3.5,0,6.9,0,10.4,0c0.5,0,0.7-0.2,0.7-0.7c0-2.5,0-4.9,0-7.4
				c0-0.5-0.2-0.7-0.7-0.7C64.9,430.5,63.1,430.5,61.4,430.5z M65.5,429.3c0-0.1,0-0.1,0-0.2c0-0.8,0-1.6,0-2.4c0-0.2,0-0.4-0.1-0.5
				c-0.4-2.3-2.5-3.7-4.7-3.3c-1.9,0.3-3.4,2-3.4,3.9c0,0.8,0,1.5,0,2.3c0,0,0,0.1,0,0.2C60.1,429.3,62.8,429.3,65.5,429.3z"/>
			<path fill="#3A3A3A" d="M60.8,436.4C60.8,436.4,60.8,436.4,60.8,436.4c0-0.4,0-0.7-0.5-1c-0.7-0.4-0.9-1.3-0.6-2.1
				c0.3-0.7,1-1.2,1.8-1.1c0.8,0.1,1.4,0.7,1.5,1.5c0.1,0.8-0.3,1.5-1,1.9c-0.1,0-0.1,0.1-0.1,0.2c0,0.4,0,0.7,0,1.1
				c0,0.4-0.2,0.6-0.6,0.6c-0.4,0-0.6-0.2-0.6-0.6C60.8,436.7,60.8,436.6,60.8,436.4z M61.4,434.6c0.4,0,0.6-0.2,0.6-0.6
				c0-0.3-0.2-0.6-0.6-0.6c-0.3,0-0.6,0.2-0.6,0.6C60.8,434.4,61.1,434.6,61.4,434.6z"/>
		</g>
	</g>
	<g>
		<g>
			<path fill="#3A3A3A" d="M53.3,218.2c0-0.2,0.1-0.4,0.1-0.7c0.1-0.3,0.2-0.6,0.4-0.8c0.5-0.5,0.9-1,1.4-1.4c0.5-0.5,1.3-0.5,1.8,0
				c0.2,0.2,0.5,0.4,0.7,0.6c0.5,0.5,1,1,1.4,1.5c0.5,0.5,0.5,1.3,0,1.8c-0.4,0.4-0.8,0.8-1.2,1.2c1,1.7,2.3,3.1,4.1,4.1
				c0.1-0.1,0.3-0.3,0.4-0.4c0.3-0.3,0.5-0.5,0.8-0.8c0.6-0.5,1.3-0.5,1.8,0c0.7,0.7,1.4,1.4,2.1,2.1c0.5,0.5,0.5,1.3,0,1.8
				c-0.1,0.2-0.3,0.3-0.5,0.5c-0.3,0.3-0.6,0.7-1,1c-0.5,0.5-1.2,0.6-1.9,0.5c-1.3-0.1-2.4-0.6-3.5-1.2c-1.4-0.8-2.6-1.7-3.7-2.9
				c-1.3-1.4-2.3-2.9-3-4.7c-0.2-0.6-0.4-1.2-0.4-1.8c0,0,0-0.1,0-0.1C53.3,218.5,53.3,218.3,53.3,218.2z M54.2,218.3
				c0,0.7,0.2,1.3,0.4,1.9c0.5,1.4,1.3,2.6,2.3,3.8c1.3,1.5,2.8,2.8,4.7,3.7c0.8,0.4,1.6,0.7,2.5,0.8c0.6,0,1-0.1,1.4-0.5
				c0.3-0.3,0.6-0.6,0.9-0.9c0.1-0.1,0.1-0.1,0.2-0.2c0.2-0.3,0.2-0.6,0-0.8c-0.1-0.1-0.1-0.1-0.2-0.2c-0.5-0.5-1.1-1.1-1.6-1.6
				c0,0-0.1-0.1-0.1-0.1c-0.3-0.3-0.6-0.3-0.8,0c0,0-0.1,0.1-0.1,0.1c-0.3,0.3-0.7,0.7-1,1c-0.2,0.2-0.5,0.3-0.8,0.1
				c-0.2-0.1-0.4-0.2-0.6-0.3c-0.9-0.5-1.7-1.2-2.4-2c-0.6-0.7-1.2-1.4-1.5-2.2c-0.2-0.4-0.2-0.7,0.2-1c0.4-0.3,0.7-0.7,1.1-1.1
				c0.3-0.3,0.3-0.5,0-0.8c0,0-0.1-0.1-0.1-0.1c-0.6-0.6-1.1-1.1-1.7-1.7c-0.1-0.1-0.1-0.1-0.2-0.2c-0.3-0.1-0.5-0.1-0.8,0.2
				c-0.3,0.3-0.6,0.7-1,1C54.4,217.4,54.2,217.9,54.2,218.3z"/>
			<path fill="#3A3A3A" d="M61.9,214.1c0.3,0.1,0.6,0.2,0.9,0.2c1.4,0.4,2.6,1.2,3.6,2.2c0.8,0.9,1.4,1.9,1.8,3
				c0.1,0.4,0.2,0.9,0.3,1.3c0,0.2-0.1,0.4-0.3,0.5c-0.2,0.1-0.4,0-0.5-0.2c0-0.1-0.1-0.2-0.1-0.3c-0.4-1.8-1.3-3.2-2.7-4.3
				c-0.9-0.7-2-1.2-3.1-1.4c0,0-0.1,0-0.1,0c-0.2,0-0.3-0.2-0.3-0.3c0-0.2,0-0.4,0.2-0.5c0,0,0,0,0.1,0
				C61.7,214.1,61.8,214.1,61.9,214.1z"/>
			<path fill="#3A3A3A" d="M61.6,216.8c0.4,0.1,0.8,0.2,1.1,0.4c1.5,0.7,2.5,1.8,2.9,3.4c0,0.1,0,0.2,0.1,0.3
				c0.1,0.3-0.1,0.5-0.3,0.5c-0.2,0.1-0.5-0.1-0.5-0.3c-0.1-0.3-0.2-0.7-0.3-1c-0.6-1.3-1.6-2.1-3-2.4c-0.3-0.1-0.4-0.2-0.4-0.5
				C61.2,217,61.4,216.9,61.6,216.8C61.6,216.9,61.6,216.8,61.6,216.8z"/>
			<path fill="#3A3A3A" d="M54.2,218.3c0-0.5,0.2-0.9,0.5-1.3c0.3-0.3,0.6-0.7,1-1c0.3-0.3,0.5-0.3,0.8-0.2c0.1,0,0.2,0.1,0.2,0.2
				c0.6,0.6,1.1,1.1,1.7,1.7c0,0,0.1,0.1,0.1,0.1c0.2,0.3,0.2,0.6,0,0.8c-0.3,0.4-0.7,0.7-1.1,1.1c-0.3,0.3-0.4,0.6-0.2,1
				c0.4,0.8,0.9,1.5,1.5,2.2c0.7,0.8,1.5,1.5,2.4,2c0.2,0.1,0.4,0.2,0.6,0.3c0.3,0.1,0.6,0.1,0.8-0.1c0.3-0.3,0.7-0.7,1-1
				c0,0,0.1-0.1,0.1-0.1c0.3-0.2,0.6-0.2,0.8,0c0,0,0.1,0.1,0.1,0.1c0.5,0.5,1.1,1.1,1.6,1.6c0.1,0.1,0.1,0.1,0.2,0.2
				c0.2,0.3,0.2,0.5,0,0.8c-0.1,0.1-0.1,0.1-0.2,0.2c-0.3,0.3-0.6,0.6-0.9,0.9c-0.4,0.4-0.9,0.6-1.4,0.5c-0.9-0.1-1.7-0.4-2.5-0.8
				c-1.8-0.9-3.4-2.1-4.7-3.7c-1-1.1-1.8-2.4-2.3-3.8C54.4,219.6,54.2,219,54.2,218.3z"/>
		</g>
	</g>
</g>
<g id="Layer_3">
</g>
</svg>
